<?xml version="1.0" standalone="no"?>
<!DOCTYPE svg PUBLIC "-//W3C//DTD SVG 20010904//EN" "http://www.w3.org/TR/2001/REC-SVG-20010904/DTD/svg10.dtd">
<!-- Created using Karbon, part of Calligra: http://www.calligra.org/karbon -->
<svg xmlns="http://www.w3.org/2000/svg" xmlns:xlink="http://www.w3.org/1999/xlink" width="550pt" height="841pt">
<defs/>
<g id="layer0">
  <path id="shape0" transform="translate(198, 300)" fill="none" stroke="#ffffff" stroke-width="4.00000000000" stroke-linecap="butt" stroke-linejoin="miter" stroke-miterlimit="2.00000000000" d="M0 0L37 0"/>
  <path id="shape1" transform="translate(198, 300)" fill="none" stroke="#000000" stroke-width="2.00000000000" stroke-linecap="butt" stroke-linejoin="miter" stroke-miterlimit="2.00000000000" d="M0 0L37 0"/>
  <path id="shape2" transform="translate(233, 295.5)" fill="#000000" stroke="#000000" stroke-width="1.25000000000" stroke-linecap="butt" stroke-linejoin="miter" stroke-miterlimit="2.00000000000" d="M9 4.5L0 9L0 0Z"/>
  <text id="shape3" fill="#000000" font-family="verdana" font-size="9.60000038147pt" x="0.00000000000pt" y="26.00000000000pt" transform="translate(216.667, 262.5)"><tspan></tspan></text>
  <path id="shape4" transform="translate(278, 237.678)" fill="none" stroke="#ffffff" stroke-width="4.00000000000" stroke-linecap="butt" stroke-linejoin="miter" stroke-miterlimit="2.00000000000" d="M0 44.3223L44.3223 0"/>
  <path id="shape5" transform="translate(278, 237.678)" fill="none" stroke="#000000" stroke-width="2.00000000000" stroke-linecap="butt" stroke-linejoin="miter" stroke-miterlimit="2.00000000000" d="M0 44.3223L44.3223 0"/>
  <path id="shape6" transform="translate(317.726, 232.728)" fill="#000000" stroke="#000000" stroke-width="1.25000000000" stroke-linecap="butt" stroke-linejoin="miter" stroke-miterlimit="2.00000000000" d="M9.54594 0L6.36396 9.54594L0 3.18198Z"/>
  <text id="shape7" fill="#000000" font-family="verdana" font-size="9.60000038147pt" x="0.00000000000pt" y="26.00000000000pt" transform="translate(306.374, 236.935)"><tspan></tspan></text>
  <path id="shape8" transform="translate(358, 220)" fill="none" stroke="#ffffff" stroke-width="4.00000000000" stroke-linecap="butt" stroke-linejoin="miter" stroke-miterlimit="2.00000000000" d="M0 0L37 0"/>
  <path id="shape9" transform="translate(358, 220)" fill="none" stroke="#000000" stroke-width="2.00000000000" stroke-linecap="butt" stroke-linejoin="miter" stroke-miterlimit="2.00000000000" d="M0 0L37 0"/>
  <path id="shape10" transform="translate(393, 215.5)" fill="#000000" stroke="#000000" stroke-width="1.25000000000" stroke-linecap="butt" stroke-linejoin="miter" stroke-miterlimit="2.00000000000" d="M9 4.5L0 9L0 0Z"/>
  <text id="shape11" fill="#000000" font-family="verdana" font-size="9.60000038147pt" x="0.00000000000pt" y="26.00000000000pt" transform="translate(376.667, 182.5)"><tspan></tspan></text>
  <path id="shape12" transform="translate(438, 220)" fill="none" stroke="#ffffff" stroke-width="4.00000000000" stroke-linecap="butt" stroke-linejoin="miter" stroke-miterlimit="2.00000000000" d="M0 0L37 0"/>
  <path id="shape13" transform="translate(438, 220)" fill="none" stroke="#000000" stroke-width="2.00000000000" stroke-linecap="butt" stroke-linejoin="miter" stroke-miterlimit="2.00000000000" d="M0 0L37 0"/>
  <path id="shape14" transform="translate(473, 215.5)" fill="#000000" stroke="#000000" stroke-width="1.25000000000" stroke-linecap="butt" stroke-linejoin="miter" stroke-miterlimit="2.00000000000" d="M9 4.5L0 9L0 0Z"/>
  <text id="shape15" fill="#000000" font-family="verdana" font-size="9.60000038147pt" x="0.00000000000pt" y="26.00000000000pt" transform="translate(456.667, 182.5)"><tspan></tspan></text>
  <path id="shape16" transform="translate(278, 318)" fill="none" stroke="#ffffff" stroke-width="4.00000000000" stroke-linecap="butt" stroke-linejoin="miter" stroke-miterlimit="2.00000000000" d="M0 0L44.3223 44.3223"/>
  <path id="shape17" transform="translate(278, 318)" fill="none" stroke="#000000" stroke-width="2.00000000000" stroke-linecap="butt" stroke-linejoin="miter" stroke-miterlimit="2.00000000000" d="M0 0L44.3223 44.3223"/>
  <path id="shape18" transform="translate(317.726, 357.726)" fill="#000000" stroke="#000000" stroke-width="1.25000000000" stroke-linecap="butt" stroke-linejoin="miter" stroke-miterlimit="2.00000000000" d="M9.54594 9.54594L0 6.36396L6.36396 0Z"/>
  <text id="shape19" fill="#000000" font-family="verdana" font-size="9.60000038147pt" x="0.00000000000pt" y="26.00000000000pt" transform="translate(306.374, 308.065)"><tspan></tspan></text>
  <path id="shape20" transform="translate(358, 380)" fill="none" stroke="#ffffff" stroke-width="4.00000000000" stroke-linecap="butt" stroke-linejoin="miter" stroke-miterlimit="2.00000000000" d="M0 0L37 0"/>
  <path id="shape21" transform="translate(358, 380)" fill="none" stroke="#000000" stroke-width="2.00000000000" stroke-linecap="butt" stroke-linejoin="miter" stroke-miterlimit="2.00000000000" d="M0 0L37 0"/>
  <path id="shape22" transform="translate(393, 375.5)" fill="#000000" stroke="#000000" stroke-width="1.25000000000" stroke-linecap="butt" stroke-linejoin="miter" stroke-miterlimit="2.00000000000" d="M9 4.5L0 9L0 0Z"/>
  <text id="shape23" fill="#000000" font-family="verdana" font-size="9.60000038147pt" x="0.00000000000pt" y="26.00000000000pt" transform="translate(376.667, 342.5)"><tspan></tspan></text>
  <path id="shape24" transform="translate(512.728, 232.728)" fill="none" stroke="#ffffff" stroke-width="4.00000000000" stroke-linecap="butt" stroke-linejoin="miter" stroke-miterlimit="2.00000000000" d="M0 0L44.3223 44.3223"/>
  <path id="shape25" transform="translate(512.728, 232.728)" fill="none" stroke="#000000" stroke-width="2.00000000000" stroke-linecap="butt" stroke-linejoin="miter" stroke-miterlimit="2.00000000000" d="M0 0L44.3223 44.3223"/>
  <path id="shape26" transform="translate(552.454, 272.454)" fill="#000000" stroke="#000000" stroke-width="1.25000000000" stroke-linecap="butt" stroke-linejoin="miter" stroke-miterlimit="2.00000000000" d="M9.54594 9.54594L0 6.36396L6.36396 0Z"/>
  <text id="shape27" fill="#000000" font-family="verdana" font-size="9.60000038147pt" x="0.00000000000pt" y="26.00000000000pt" transform="translate(541.102, 222.793)"><tspan></tspan></text>
  <path id="shape28" transform="translate(598, 300)" fill="none" stroke="#ffffff" stroke-width="4.00000000000" stroke-linecap="butt" stroke-linejoin="miter" stroke-miterlimit="2.00000000000" d="M0 0L37 0"/>
  <path id="shape29" transform="translate(598, 300)" fill="none" stroke="#000000" stroke-width="2.00000000000" stroke-linecap="butt" stroke-linejoin="miter" stroke-miterlimit="2.00000000000" d="M0 0L37 0"/>
  <path id="shape30" transform="translate(633, 295.5)" fill="#000000" stroke="#000000" stroke-width="1.25000000000" stroke-linecap="butt" stroke-linejoin="miter" stroke-miterlimit="2.00000000000" d="M9 4.5L0 9L0 0Z"/>
  <text id="shape31" fill="#000000" font-family="verdana" font-size="9.60000038147pt" x="0.00000000000pt" y="26.00000000000pt" transform="translate(616.667, 262.5)"><tspan></tspan></text>
  <path id="shape32" transform="translate(438, 380)" fill="none" stroke="#ffffff" stroke-width="4.00000000000" stroke-linecap="butt" stroke-linejoin="miter" stroke-miterlimit="2.00000000000" d="M0 0L37 0"/>
  <path id="shape33" transform="translate(438, 380)" fill="none" stroke="#000000" stroke-width="2.00000000000" stroke-linecap="butt" stroke-linejoin="miter" stroke-miterlimit="2.00000000000" d="M0 0L37 0"/>
  <path id="shape34" transform="translate(473, 375.5)" fill="#000000" stroke="#000000" stroke-width="1.25000000000" stroke-linecap="butt" stroke-linejoin="miter" stroke-miterlimit="2.00000000000" d="M9 4.5L0 9L0 0Z"/>
  <text id="shape35" fill="#000000" font-family="verdana" font-size="9.60000038147pt" x="0.00000000000pt" y="26.00000000000pt" transform="translate(456.667, 342.5)"><tspan></tspan></text>
  <path id="shape36" transform="translate(512.728, 322.95)" fill="none" stroke="#ffffff" stroke-width="4.00000000000" stroke-linecap="butt" stroke-linejoin="miter" stroke-miterlimit="2.00000000000" d="M0 44.3223L44.3223 0"/>
  <path id="shape37" transform="translate(512.728, 322.95)" fill="none" stroke="#000000" stroke-width="2.00000000000" stroke-linecap="butt" stroke-linejoin="miter" stroke-miterlimit="2.00000000000" d="M0 44.3223L44.3223 0"/>
  <path id="shape38" transform="translate(552.454, 318)" fill="#000000" stroke="#000000" stroke-width="1.25000000000" stroke-linecap="butt" stroke-linejoin="miter" stroke-miterlimit="2.00000000000" d="M9.54594 0L6.36396 9.54594L0 3.18198Z"/>
  <text id="shape39" fill="#000000" font-family="verdana" font-size="9.60000038147pt" x="0.00000000000pt" y="26.00000000000pt" transform="translate(541.102, 322.207)"><tspan></tspan></text>
  <circle id="shape40" transform="translate(162, 282)" r="14.40000000000pt" cx="14.40000000000pt" cy="14.40000000000pt" fill="#ffffff" stroke="#000000" stroke-width="2.00000000000" stroke-linecap="butt" stroke-linejoin="miter" stroke-miterlimit="2.00000000000"/>
  <circle id="shape41" transform="translate(177, 297)" r="2.40000000000pt" cx="2.40000000000pt" cy="2.40000000000pt" fill="#000000"/>
  <circle id="shape42" transform="translate(184, 304)" r="2.40000000000pt" cx="2.40000000000pt" cy="2.40000000000pt" fill="#ffffff"/>
  <circle id="shape43" transform="translate(170, 304)" r="2.40000000000pt" cx="2.40000000000pt" cy="2.40000000000pt" fill="#ffffff"/>
  <circle id="shape44" transform="translate(184, 290)" r="2.40000000000pt" cx="2.40000000000pt" cy="2.40000000000pt" fill="#ffffff"/>
  <circle id="shape45" transform="translate(170, 290)" r="2.40000000000pt" cx="2.40000000000pt" cy="2.40000000000pt" fill="#ffffff"/>
  <circle id="shape46" transform="translate(170, 297)" r="2.40000000000pt" cx="2.40000000000pt" cy="2.40000000000pt" fill="#ffffff"/>
  <circle id="shape47" transform="translate(184, 297)" r="2.40000000000pt" cx="2.40000000000pt" cy="2.40000000000pt" fill="#ffffff"/>
  <circle id="shape48" transform="translate(177, 290)" r="2.40000000000pt" cx="2.40000000000pt" cy="2.40000000000pt" fill="#ffffff"/>
  <circle id="shape49" transform="translate(177, 304)" r="2.40000000000pt" cx="2.40000000000pt" cy="2.40000000000pt" fill="#ffffff"/>
  <text id="shape50" fill="#000000" font-family="verdana" font-size="9.60000038147pt" x="0.00000000000pt" y="26.00000000000pt" transform="translate(180, 273.5)"><tspan></tspan></text>
  <circle id="shape51" transform="translate(322, 202)" r="14.40000000000pt" cx="14.40000000000pt" cy="14.40000000000pt" fill="#ffffff" stroke="#000000" stroke-width="2.00000000000" stroke-linecap="butt" stroke-linejoin="miter" stroke-miterlimit="2.00000000000"/>
  <circle id="shape52" transform="translate(337, 217)" r="2.40000000000pt" cx="2.40000000000pt" cy="2.40000000000pt" fill="#ffffff"/>
  <circle id="shape53" transform="translate(344, 224)" r="2.40000000000pt" cx="2.40000000000pt" cy="2.40000000000pt" fill="#ffffff"/>
  <circle id="shape54" transform="translate(330, 224)" r="2.40000000000pt" cx="2.40000000000pt" cy="2.40000000000pt" fill="#ffffff"/>
  <circle id="shape55" transform="translate(344, 210)" r="2.40000000000pt" cx="2.40000000000pt" cy="2.40000000000pt" fill="#ffffff"/>
  <circle id="shape56" transform="translate(330, 210)" r="2.40000000000pt" cx="2.40000000000pt" cy="2.40000000000pt" fill="#ffffff"/>
  <circle id="shape57" transform="translate(330, 217)" r="2.40000000000pt" cx="2.40000000000pt" cy="2.40000000000pt" fill="#ffffff"/>
  <circle id="shape58" transform="translate(344, 217)" r="2.40000000000pt" cx="2.40000000000pt" cy="2.40000000000pt" fill="#ffffff"/>
  <circle id="shape59" transform="translate(337, 210)" r="2.40000000000pt" cx="2.40000000000pt" cy="2.40000000000pt" fill="#ffffff"/>
  <circle id="shape60" transform="translate(337, 224)" r="2.40000000000pt" cx="2.40000000000pt" cy="2.40000000000pt" fill="#ffffff"/>
  <text id="shape61" fill="#000000" font-family="verdana" font-size="9.60000038147pt" x="0.00000000000pt" y="26.00000000000pt" transform="translate(340, 193.5)"><tspan></tspan></text>
  <circle id="shape62" transform="translate(322, 362)" r="14.40000000000pt" cx="14.40000000000pt" cy="14.40000000000pt" fill="#ffffff" stroke="#000000" stroke-width="2.00000000000" stroke-linecap="butt" stroke-linejoin="miter" stroke-miterlimit="2.00000000000"/>
  <circle id="shape63" transform="translate(337, 377)" r="2.40000000000pt" cx="2.40000000000pt" cy="2.40000000000pt" fill="#ffffff"/>
  <circle id="shape64" transform="translate(344, 384)" r="2.40000000000pt" cx="2.40000000000pt" cy="2.40000000000pt" fill="#ffffff"/>
  <circle id="shape65" transform="translate(330, 384)" r="2.40000000000pt" cx="2.40000000000pt" cy="2.40000000000pt" fill="#ffffff"/>
  <circle id="shape66" transform="translate(344, 370)" r="2.40000000000pt" cx="2.40000000000pt" cy="2.40000000000pt" fill="#ffffff"/>
  <circle id="shape67" transform="translate(330, 370)" r="2.40000000000pt" cx="2.40000000000pt" cy="2.40000000000pt" fill="#ffffff"/>
  <circle id="shape68" transform="translate(330, 377)" r="2.40000000000pt" cx="2.40000000000pt" cy="2.40000000000pt" fill="#ffffff"/>
  <circle id="shape69" transform="translate(344, 377)" r="2.40000000000pt" cx="2.40000000000pt" cy="2.40000000000pt" fill="#ffffff"/>
  <circle id="shape70" transform="translate(337, 370)" r="2.40000000000pt" cx="2.40000000000pt" cy="2.40000000000pt" fill="#ffffff"/>
  <circle id="shape71" transform="translate(337, 384)" r="2.40000000000pt" cx="2.40000000000pt" cy="2.40000000000pt" fill="#ffffff"/>
  <text id="shape72" fill="#000000" font-family="verdana" font-size="9.60000038147pt" x="0.00000000000pt" y="26.00000000000pt" transform="translate(340, 353.5)"><tspan></tspan></text>
  <circle id="shape73" transform="translate(482, 202)" r="14.40000000000pt" cx="14.40000000000pt" cy="14.40000000000pt" fill="#ffffff" stroke="#000000" stroke-width="2.00000000000" stroke-linecap="butt" stroke-linejoin="miter" stroke-miterlimit="2.00000000000"/>
  <circle id="shape74" transform="translate(497, 217)" r="2.40000000000pt" cx="2.40000000000pt" cy="2.40000000000pt" fill="#ffffff"/>
  <circle id="shape75" transform="translate(504, 224)" r="2.40000000000pt" cx="2.40000000000pt" cy="2.40000000000pt" fill="#ffffff"/>
  <circle id="shape76" transform="translate(490, 224)" r="2.40000000000pt" cx="2.40000000000pt" cy="2.40000000000pt" fill="#ffffff"/>
  <circle id="shape77" transform="translate(504, 210)" r="2.40000000000pt" cx="2.40000000000pt" cy="2.40000000000pt" fill="#ffffff"/>
  <circle id="shape78" transform="translate(490, 210)" r="2.40000000000pt" cx="2.40000000000pt" cy="2.40000000000pt" fill="#ffffff"/>
  <circle id="shape79" transform="translate(490, 217)" r="2.40000000000pt" cx="2.40000000000pt" cy="2.40000000000pt" fill="#ffffff"/>
  <circle id="shape80" transform="translate(504, 217)" r="2.40000000000pt" cx="2.40000000000pt" cy="2.40000000000pt" fill="#ffffff"/>
  <circle id="shape81" transform="translate(497, 210)" r="2.40000000000pt" cx="2.40000000000pt" cy="2.40000000000pt" fill="#ffffff"/>
  <circle id="shape82" transform="translate(497, 224)" r="2.40000000000pt" cx="2.40000000000pt" cy="2.40000000000pt" fill="#ffffff"/>
  <text id="shape83" fill="#000000" font-family="verdana" font-size="9.60000038147pt" x="0.00000000000pt" y="26.00000000000pt" transform="translate(500, 193.5)"><tspan></tspan></text>
  <circle id="shape84" transform="translate(642, 282)" r="14.40000000000pt" cx="14.40000000000pt" cy="14.40000000000pt" fill="#ffffff" stroke="#000000" stroke-width="2.00000000000" stroke-linecap="butt" stroke-linejoin="miter" stroke-miterlimit="2.00000000000"/>
  <circle id="shape85" transform="translate(657, 297)" r="2.40000000000pt" cx="2.40000000000pt" cy="2.40000000000pt" fill="#ffffff"/>
  <circle id="shape86" transform="translate(664, 304)" r="2.40000000000pt" cx="2.40000000000pt" cy="2.40000000000pt" fill="#ffffff"/>
  <circle id="shape87" transform="translate(650, 304)" r="2.40000000000pt" cx="2.40000000000pt" cy="2.40000000000pt" fill="#ffffff"/>
  <circle id="shape88" transform="translate(664, 290)" r="2.40000000000pt" cx="2.40000000000pt" cy="2.40000000000pt" fill="#ffffff"/>
  <circle id="shape89" transform="translate(650, 290)" r="2.40000000000pt" cx="2.40000000000pt" cy="2.40000000000pt" fill="#ffffff"/>
  <circle id="shape90" transform="translate(650, 297)" r="2.40000000000pt" cx="2.40000000000pt" cy="2.40000000000pt" fill="#ffffff"/>
  <circle id="shape91" transform="translate(664, 297)" r="2.40000000000pt" cx="2.40000000000pt" cy="2.40000000000pt" fill="#ffffff"/>
  <circle id="shape92" transform="translate(657, 290)" r="2.40000000000pt" cx="2.40000000000pt" cy="2.40000000000pt" fill="#ffffff"/>
  <circle id="shape93" transform="translate(657, 304)" r="2.40000000000pt" cx="2.40000000000pt" cy="2.40000000000pt" fill="#ffffff"/>
  <text id="shape94" fill="#000000" font-family="verdana" font-size="9.60000038147pt" x="0.00000000000pt" y="26.00000000000pt" transform="translate(660, 273.5)"><tspan></tspan></text>
  <circle id="shape95" transform="translate(482, 362)" r="14.40000000000pt" cx="14.40000000000pt" cy="14.40000000000pt" fill="#ffffff" stroke="#000000" stroke-width="2.00000000000" stroke-linecap="butt" stroke-linejoin="miter" stroke-miterlimit="2.00000000000"/>
  <circle id="shape96" transform="translate(497, 377)" r="2.40000000000pt" cx="2.40000000000pt" cy="2.40000000000pt" fill="#ffffff"/>
  <circle id="shape97" transform="translate(504, 384)" r="2.40000000000pt" cx="2.40000000000pt" cy="2.40000000000pt" fill="#ffffff"/>
  <circle id="shape98" transform="translate(490, 384)" r="2.40000000000pt" cx="2.40000000000pt" cy="2.40000000000pt" fill="#ffffff"/>
  <circle id="shape99" transform="translate(504, 370)" r="2.40000000000pt" cx="2.40000000000pt" cy="2.40000000000pt" fill="#ffffff"/>
  <circle id="shape100" transform="translate(490, 370)" r="2.40000000000pt" cx="2.40000000000pt" cy="2.40000000000pt" fill="#ffffff"/>
  <circle id="shape101" transform="translate(490, 377)" r="2.40000000000pt" cx="2.40000000000pt" cy="2.40000000000pt" fill="#ffffff"/>
  <circle id="shape102" transform="translate(504, 377)" r="2.40000000000pt" cx="2.40000000000pt" cy="2.40000000000pt" fill="#ffffff"/>
  <circle id="shape103" transform="translate(497, 370)" r="2.40000000000pt" cx="2.40000000000pt" cy="2.40000000000pt" fill="#ffffff"/>
  <circle id="shape104" transform="translate(497, 384)" r="2.40000000000pt" cx="2.40000000000pt" cy="2.40000000000pt" fill="#ffffff"/>
  <text id="shape105" fill="#000000" font-family="verdana" font-size="9.60000038147pt" x="0.00000000000pt" y="26.00000000000pt" transform="translate(500, 353.5)"><tspan></tspan></text>
  <rect id="shape106" transform="translate(242, 282)" fill="#ffffff" stroke="#000000" stroke-width="2.00000000000" stroke-linecap="butt" stroke-linejoin="miter" stroke-miterlimit="2.00000000000" width="28.80000000000pt" height="28.80000000000pt"/>
  <rect id="shape107" transform="translate(402, 202)" fill="#ffffff" stroke="#000000" stroke-width="2.00000000000" stroke-linecap="butt" stroke-linejoin="miter" stroke-miterlimit="2.00000000000" width="28.80000000000pt" height="28.80000000000pt"/>
  <rect id="shape108" transform="translate(402, 362)" fill="#ffffff" stroke="#000000" stroke-width="2.00000000000" stroke-linecap="butt" stroke-linejoin="miter" stroke-miterlimit="2.00000000000" width="28.80000000000pt" height="28.80000000000pt"/>
  <rect id="shape109" transform="translate(562, 282)" fill="#ffffff" stroke="#000000" stroke-width="2.00000000000" stroke-linecap="butt" stroke-linejoin="miter" stroke-miterlimit="2.00000000000" width="28.80000000000pt" height="28.80000000000pt"/>
  <rect id="shape110" transform="translate(173.663, 327)" fill="#ffffff" fill-opacity="0.69999237049" width="10.13906250000pt" height="9.60000000000pt"/>
  <text id="shape111" fill="#000000" font-family="verdana" font-size="9.60000038147pt" x="0.00000000000pt" y="7.29687500000pt" transform="translate(173.663, 326.879)"><tspan x="0"  y="9.12109">P1</tspan></text>
  <rect id="shape112" transform="translate(333.663, 247)" fill="#ffffff" fill-opacity="0.69999237049" width="10.13906250000pt" height="9.60000000000pt"/>
  <text id="shape113" fill="#000000" font-family="verdana" font-size="9.60000038147pt" x="0.00000000000pt" y="7.42187500000pt" transform="translate(333.663, 246.723)"><tspan x="0"  y="9.27734">P2</tspan></text>
  <rect id="shape114" transform="translate(333.663, 407)" fill="#ffffff" fill-opacity="0.69999237049" width="10.13906250000pt" height="9.60000000000pt"/>
  <text id="shape115" fill="#000000" font-family="verdana" font-size="9.60000038147pt" x="0.00000000000pt" y="7.42187500000pt" transform="translate(333.663, 406.723)"><tspan x="0"  y="9.27734">P3</tspan></text>
  <rect id="shape116" transform="translate(493.663, 247)" fill="#ffffff" fill-opacity="0.69999237049" width="10.13906250000pt" height="9.60000000000pt"/>
  <text id="shape117" fill="#000000" font-family="verdana" font-size="9.60000038147pt" x="0.00000000000pt" y="7.29687500000pt" transform="translate(493.663, 246.879)"><tspan x="0"  y="9.12109">P4</tspan></text>
  <rect id="shape118" transform="translate(653.663, 327)" fill="#ffffff" fill-opacity="0.69999237049" width="10.13906250000pt" height="9.60000000000pt"/>
  <text id="shape119" fill="#000000" font-family="verdana" font-size="9.60000038147pt" x="0.00000000000pt" y="7.42187500000pt" transform="translate(653.663, 326.723)"><tspan x="0"  y="9.27734">P6</tspan></text>
  <rect id="shape120" transform="translate(493.663, 407)" fill="#ffffff" fill-opacity="0.69999237049" width="10.13906250000pt" height="9.60000000000pt"/>
  <text id="shape121" fill="#000000" font-family="verdana" font-size="9.60000038147pt" x="0.00000000000pt" y="7.29687500000pt" transform="translate(493.663, 406.879)"><tspan x="0"  y="9.12109">P5</tspan></text>
  <rect id="shape122" transform="translate(253.335, 327)" fill="#ffffff" fill-opacity="0.69999237049" width="10.66406250000pt" height="9.60000000000pt"/>
  <text id="shape123" fill="#000000" font-family="verdana" font-size="9.60000038147pt" x="0.00000000000pt" y="7.29687500000pt" transform="translate(253.335, 326.879)"><tspan x="0"  y="9.12109">T1</tspan></text>
  <rect id="shape124" transform="translate(413.335, 247)" fill="#ffffff" fill-opacity="0.69999237049" width="10.66406250000pt" height="9.60000000000pt"/>
  <text id="shape125" fill="#000000" font-family="verdana" font-size="9.60000038147pt" x="0.00000000000pt" y="7.42187500000pt" transform="translate(413.335, 246.723)"><tspan x="0"  y="9.27734">T2</tspan></text>
  <rect id="shape126" transform="translate(413.335, 407)" fill="#ffffff" fill-opacity="0.69999237049" width="10.66406250000pt" height="9.60000000000pt"/>
  <text id="shape127" fill="#000000" font-family="verdana" font-size="9.60000038147pt" x="0.00000000000pt" y="7.42187500000pt" transform="translate(413.335, 406.723)"><tspan x="0"  y="9.27734">T3</tspan></text>
  <rect id="shape128" transform="translate(573.335, 327)" fill="#ffffff" fill-opacity="0.69999237049" width="10.66406250000pt" height="9.60000000000pt"/>
  <text id="shape129" fill="#000000" font-family="verdana" font-size="9.60000038147pt" x="0.00000000000pt" y="7.29687500000pt" transform="translate(573.335, 326.879)"><tspan x="0"  y="9.12109">T4</tspan></text>
 </g>
</svg>
