<svg xmlns="http://www.w3.org/2000/svg" id="canvas" class="canvas" style="width:10000px;height:5000px;"><polyline points="198,260 235,260" fill="none" stroke-width="4" stroke="white"/><polyline points="198,260 235,260" fill="none" stroke-width="2" stroke="black"/><polygon points="242,260 233,264.5 233,255.5 " fill="black" stroke="black"/><text x="216.66666666666666" y="255" font-size="12" font-family="verdana"></text><polyline points="278,251 317.63932022500205,231.18033988749897" fill="none" stroke-width="4" stroke="white"/><polyline points="278,251 317.63932022500205,231.18033988749897" fill="none" stroke-width="2" stroke="black"/><polygon points="323.9003105620015,228.04984471899925 317.8629270227521,236.09968943799848 313.83800466325243,228.04984471899925 " fill="black" stroke="black"/><text x="302.08895790266706" y="253.46919426949876" font-size="12" font-family="verdana"></text><polyline points="358,220 395,220" fill="none" stroke-width="4" stroke="white"/><polyline points="358,220 395,220" fill="none" stroke-width="2" stroke="black"/><polygon points="402,220 393,224.5 393,215.5 " fill="black" stroke="black"/><text x="376.6666666666667" y="215" font-size="12" font-family="verdana"></text><polyline points="438,220 475,220" fill="none" stroke-width="4" stroke="white"/><polyline points="438,220 475,220" fill="none" stroke-width="2" stroke="black"/><polygon points="482,220 473,224.5 473,215.5 " fill="black" stroke="black"/><text x="456.6666666666667" y="215" font-size="12" font-family="verdana"></text><polyline points="278,269 317.63932022500205,288.8196601125011" fill="none" stroke-width="4" stroke="white"/><polyline points="278,269 317.63932022500205,288.8196601125011" fill="none" stroke-width="2" stroke="black"/><polygon points="323.9003105620015,291.9501552810008 313.83800466325243,291.9501552810008 317.8629270227521,283.90031056200155 " fill="black" stroke="black"/><text x="302.08895790266706" y="276.53080573050124" font-size="12" font-family="verdana"></text><polyline points="358,300 395,300" fill="none" stroke-width="4" stroke="white"/><polyline points="358,300 395,300" fill="none" stroke-width="2" stroke="black"/><polygon points="402,300 393,304.5 393,295.5 " fill="black" stroke="black"/><text x="376.6666666666667" y="295" font-size="12" font-family="verdana"></text><polyline points="438,300 475,300" fill="none" stroke-width="4" stroke="white"/><polyline points="438,300 475,300" fill="none" stroke-width="2" stroke="black"/><polygon points="482,300 473,304.5 473,295.5 " fill="black" stroke="black"/><text x="456.6666666666667" y="295" font-size="12" font-family="verdana"></text><polyline points="487.27207793864216,207.27207793864216 442.9497474683058,162.94974746830582" fill="none" stroke-width="4" stroke="white"/><polyline points="487.27207793864216,207.27207793864216 442.9497474683058,162.94974746830582" fill="none" stroke-width="2" stroke="black"/><polygon points="438,158 447.5459415460184,161.18198051533946 441.18198051533943,167.54594154601838 " fill="black" stroke="black"/><text x="466.37377344785324" y="180.5649711574556" font-size="12" font-family="verdana"></text><polyline points="402,158 357.67766952966366,202.32233047033634" fill="none" stroke-width="4" stroke="white"/><polyline points="402,158 357.67766952966366,202.32233047033634" fill="none" stroke-width="2" stroke="black"/><polygon points="352.72792206135784,207.27207793864216 355.9099025766973,197.72613639262377 362.27386360737626,204.0900974233027 " fill="black" stroke="black"/><text x="381.1016955092111" y="194.70710678118655" font-size="12" font-family="verdana"></text><polyline points="516.0996894379984,228.04984471899925 555.7390096630006,247.8695048315003" fill="none" stroke-width="4" stroke="white"/><polyline points="516.0996894379984,228.04984471899925 555.7390096630006,247.8695048315003" fill="none" stroke-width="2" stroke="black"/><polygon points="562,251 551.9376941012509,251 555.9626164607506,242.95015528100078 " fill="black" stroke="black"/><text x="540.1886473406654" y="235.58065044950044" font-size="12" font-family="verdana"></text><polyline points="516.0996894379984,291.9501552810008 555.7390096630006,272.1304951684997" fill="none" stroke-width="4" stroke="white"/><polyline points="516.0996894379984,291.9501552810008 555.7390096630006,272.1304951684997" fill="none" stroke-width="2" stroke="black"/><polygon points="562,269 555.9626164607506,277.0498447189992 551.9376941012509,269 " fill="black" stroke="black"/><text x="540.1886473406654" y="294.41934955049953" font-size="12" font-family="verdana"></text><circle cx="340" cy="220" r="18" fill="white" stroke="black" stroke-width="2"/><circle cx="340" cy="220" r="3" fill="white"/><circle cx="347" cy="227" r="3" fill="white"/><circle cx="333" cy="227" r="3" fill="white"/><circle cx="347" cy="213" r="3" fill="white"/><circle cx="333" cy="213" r="3" fill="white"/><circle cx="333" cy="220" r="3" fill="white"/><circle cx="347" cy="220" r="3" fill="white"/><circle cx="340" cy="213" r="3" fill="white"/><circle cx="340" cy="227" r="3" fill="white"/><text x="340" y="226" font-size="12" font-family="verdana"></text><circle cx="340" cy="300" r="18" fill="white" stroke="black" stroke-width="2"/><circle cx="340" cy="300" r="3" fill="white"/><circle cx="347" cy="307" r="3" fill="white"/><circle cx="333" cy="307" r="3" fill="white"/><circle cx="347" cy="293" r="3" fill="white"/><circle cx="333" cy="293" r="3" fill="white"/><circle cx="333" cy="300" r="3" fill="white"/><circle cx="347" cy="300" r="3" fill="white"/><circle cx="340" cy="293" r="3" fill="white"/><circle cx="340" cy="307" r="3" fill="white"/><text x="340" y="306" font-size="12" font-family="verdana"></text><circle cx="500" cy="220" r="18" fill="white" stroke="black" stroke-width="2"/><circle cx="500" cy="220" r="3" fill="white"/><circle cx="507" cy="227" r="3" fill="white"/><circle cx="493" cy="227" r="3" fill="white"/><circle cx="507" cy="213" r="3" fill="white"/><circle cx="493" cy="213" r="3" fill="white"/><circle cx="493" cy="220" r="3" fill="white"/><circle cx="507" cy="220" r="3" fill="white"/><circle cx="500" cy="213" r="3" fill="white"/><circle cx="500" cy="227" r="3" fill="white"/><text x="500" y="226" font-size="12" font-family="verdana"></text><circle cx="500" cy="300" r="18" fill="white" stroke="black" stroke-width="2"/><circle cx="500" cy="300" r="3" fill="white"/><circle cx="507" cy="307" r="3" fill="white"/><circle cx="493" cy="307" r="3" fill="white"/><circle cx="507" cy="293" r="3" fill="white"/><circle cx="493" cy="293" r="3" fill="white"/><circle cx="493" cy="300" r="3" fill="white"/><circle cx="507" cy="300" r="3" fill="white"/><circle cx="500" cy="293" r="3" fill="white"/><circle cx="500" cy="307" r="3" fill="white"/><text x="500" y="306" font-size="12" font-family="verdana"></text><circle cx="180" cy="260" r="18" fill="white" stroke="black" stroke-width="2"/><circle cx="180" cy="260" r="3" fill="white"/><circle cx="187" cy="267" r="3" fill="white"/><circle cx="173" cy="267" r="3" fill="white"/><circle cx="187" cy="253" r="3" fill="white"/><circle cx="173" cy="253" r="3" fill="white"/><circle cx="173" cy="260" r="3" fill="white"/><circle cx="187" cy="260" r="3" fill="white"/><circle cx="180" cy="253" r="3" fill="white"/><circle cx="180" cy="267" r="3" fill="white"/><text x="180" y="266" font-size="12" font-family="verdana"></text><rect x="242" y="242" width="36" height="36" fill="white" stroke="red" stroke-width="2"/><rect x="402" y="202" width="36" height="36" fill="white" stroke="red" stroke-width="2"/><rect x="402" y="282" width="36" height="36" fill="white" stroke="red" stroke-width="2"/><rect x="562" y="242" width="36" height="36" fill="white" stroke="red" stroke-width="2"/><rect x="402" y="122" width="36" height="36" fill="white" stroke="red" stroke-width="2"/><rect x="334" y="247" width="12" height="12" fill-opacity="0.7" fill="white"/><text x="334" y="256" font-size="12" font-family="verdana" fill="black">#4</text><rect x="334" y="327" width="12" height="12" fill-opacity="0.7" fill="white"/><text x="334" y="336" font-size="12" font-family="verdana" fill="black">#5</text><rect x="494" y="247" width="12" height="12" fill-opacity="0.7" fill="white"/><text x="494" y="256" font-size="12" font-family="verdana" fill="black">#6</text><rect x="494" y="327" width="12" height="12" fill-opacity="0.7" fill="white"/><text x="494" y="336" font-size="12" font-family="verdana">#7</text><rect x="171" y="287" width="18" height="12" fill-opacity="0.7" fill="white"/><text x="171" y="296" font-size="12" font-family="verdana" fill="black">#12</text><rect x="260" y="287" width="0" height="12" fill-opacity="0.7" fill="white"/><text x="260" y="296" font-size="12" font-family="verdana"></text><rect x="420" y="247" width="0" height="12" fill-opacity="0.7" fill="white"/><text x="420" y="256" font-size="12" font-family="verdana"></text><rect x="420" y="327" width="0" height="12" fill-opacity="0.7" fill="white"/><text x="420" y="336" font-size="12" font-family="verdana"></text><rect x="580" y="287" width="0" height="12" fill-opacity="0.7" fill="white"/><text x="580" y="296" font-size="12" font-family="verdana"></text><rect x="420" y="167" width="0" height="12" fill-opacity="0.7" fill="white"/><text x="420" y="176" font-size="12" font-family="verdana"></text></svg>